<?xml version="1.0" encoding="utf-8"?>
<!-- License: CC Attribution. Made by Shannon E. Thomas: https://dribbble.com/shannonethomas -->
<svg version="1.1" id="Uploaded to svgrepo.com" xmlns="http://www.w3.org/2000/svg" xmlns:xlink="http://www.w3.org/1999/xlink"
	 width="30px" height="30px" viewBox="0 0 32 32" xml:space="preserve">
<style type="text/css">
	.blueprint_een{fill:#763F98;}
</style>
<path class="blueprint_een" d="M30,1L5.118,1c-1.451,0-2.784,0.978-3.06,2.402C1.686,5.317,3.15,7,5,7v2c-1.654,0-3,1.346-3,3
	s1.346,3,3,3v2c-1.654,0-3,1.346-3,3s1.346,3,3,3v2c-1.85,0-3.314,1.683-2.942,3.598C2.335,30.022,3.667,31,5.118,31H30
	c0.552,0,1-0.448,1-1V2C31,1.448,30.552,1,30,1z M9,4c0,0.551-0.449,1-1,1H5C4.449,5,4,4.551,4,4s0.449-1,1-1h3C8.551,3,9,3.449,9,4
	z M8,29H5c-0.551,0-1-0.449-1-1s0.449-1,1-1h3c0.551,0,1,0.449,1,1S8.551,29,8,29z M4,20c0-0.551,0.449-1,1-1h3c0.551,0,1,0.449,1,1
	s-0.449,1-1,1H5C4.449,21,4,20.551,4,20z M4,12c0-0.551,0.449-1,1-1h3c0.551,0,1,0.449,1,1s-0.449,1-1,1H5C4.449,13,4,12.551,4,12z
	 M9.723,29C9.894,28.705,10,28.366,10,28c0-1.104-0.896-2-2-2H7v-4h1c1.104,0,2-0.896,2-2s-0.896-2-2-2H7v-4h1c1.104,0,2-0.896,2-2
	s-0.896-2-2-2H7V6h1c1.104,0,2-0.896,2-2c0-0.366-0.106-0.705-0.277-1H29l0.001,26H9.723z M20.94,13.045
	C21.533,12.416,22,11.444,22,10c0-1.657-1.343-3-3-3s-3,1.343-3,3c0,1.444,0.467,2.416,1.06,3.045C15.339,13.264,14,14.721,14,16.5
	V18h1v-1.5c0-1.378,1.122-2.5,2.5-2.5h3c1.378,0,2.5,1.122,2.5,2.5V18h1v-1.5C24,14.721,22.661,13.264,20.94,13.045z M19,8
	c1.103,0,2,0.897,2,2c0,2.491-1.578,3-2,3c-0.422,0-2-0.509-2-3C17,8.897,17.897,8,19,8z M14,21h10v1H14V21z M14,23h10v1H14V23z"/>
</svg>