<?xml version="1.0" encoding="UTF-8"?>
<svg id="Layer_1" data-name="Layer 1" xmlns="http://www.w3.org/2000/svg" viewBox="0 0 336.33 99.78">
  <path d="m140.54,49.9c0-15.13.02-30.25-.02-45.38,0-2.48.94-4.12,4.06-4.09,12.57.12,25.14-.01,37.71.07,8.62.06,16.91,1.82,24.86,5.24,6.57,2.83,12.2,6.94,16.84,12.31,5.07,5.88,8.14,12.79,9.74,20.4,1.08,5.14,1.26,10.34.88,15.49-.73,9.9-3.9,18.96-10.29,26.75-7.36,8.99-17,14.13-28.12,16.85-5.68,1.39-11.43,1.97-17.27,1.96-11.48-.02-22.96,0-34.44,0-2.76,0-3.95-1.17-3.95-3.9,0-15.24,0-30.47,0-45.71Zm27.53.06c0,7.78.04,15.55-.03,23.33-.01,1.54.59,2.02,2,1.97,3.84-.13,7.68-.28,11.52-.32,3.86-.04,7.57-.79,11.08-2.33,5.73-2.52,10.01-6.51,12.27-12.51,1.88-4.98,1.92-10.09,1.26-15.27-.78-6.2-3.82-11.12-8.77-14.8-4.9-3.64-10.64-4.95-16.6-5.25-3.58-.18-7.18.05-10.76-.07-1.65-.05-2,.58-1.99,2.09.06,7.72.03,15.44.03,23.16Z" fill="#763f98"/>
  <path d="m245.46,50.14c.07-12.22,3.92-23.1,11.64-32.45,6.95-8.42,15.98-13.73,26.64-16.22,5.46-1.27,11.02-1.62,16.57-1.26,8.63.57,16.78,2.82,24.06,7.73,4.02,2.71,7.51,5.97,10.58,9.71,1.11,1.35.81,3.43-.55,4.46-5.04,3.85-10.06,7.71-15.08,11.59-1.65,1.27-2.96,1.25-4.39-.23-2.64-2.73-5.4-5.4-8.91-6.88-8.36-3.51-16.42-3.13-23.76,2.7-5.14,4.08-7.8,9.55-8.75,15.95-.93,6.23-.28,12.27,2.67,17.87,3.45,6.54,8.75,10.92,16.17,12.06,6.92,1.06,13.32-.46,18.74-5.16,1.55-1.35,3.03-2.78,4.52-4.19,1.34-1.27,2.62-1.45,4.08-.43,5.19,3.64,10.36,7.3,15.52,10.98,1.18.84,1.56,2.76.52,3.88-3.2,3.44-6.31,7.01-9.88,10.02-5.52,4.64-12.21,7.19-19.23,8.45-4.48.8-9.13,1.17-13.68,1.02-7.67-.26-15.07-2.08-21.88-5.81-6.33-3.47-11.66-8.08-15.93-13.95-4.43-6.1-7.3-12.86-8.71-20.2-.61-3.16-.66-6.43-.96-9.64Z" fill="#763f98"/>
  <path d="m41.07,82.1c-2.67-3.6-5.32-7.21-8.03-10.79-5.58-7.37-11.21-14.7-16.77-22.09-4.39-5.84-8.95-11.57-13-17.64-4.51-6.76-4.12-13.98-.34-20.94C6.17,4.69,11.48,1.21,18.1.26c6.53-.93,12.72.58,17.44,5.41,3.41,3.48,6.25,7.52,9.22,11.42,5.89,7.74,11.67,15.55,17.55,23.3.54.71.55,1.14.06,1.78-4.84,6.25-9.76,12.43-14.46,18.78-3.06,4.14-5.77,8.51-6.96,13.66-.58,2.52-.51,4.94.13,7.48Z" fill="#763f98"/>
  <path d="m88.08,82.12c1.77-4.55.38-8.47-1.3-12.35-2.27-5.25-5.92-9.56-9.41-14-3.74-4.77-7.3-9.68-10.89-14.48,8.33-11.13,16.47-22.28,24.92-33.19,3.85-4.97,9.17-7.67,15.62-7.97,5.22-.24,9.93,1.07,14.03,4.28,4.28,3.35,6.92,7.71,7.85,13.12.65,3.76.49,7.49-1.07,10.92-1.18,2.61-2.89,5.01-4.6,7.33-6.46,8.72-13.01,17.37-19.55,26.03-4.89,6.48-9.81,12.93-14.72,19.39-.19.25-.44.46-.89.93Z" fill="#763f98"/>
  <path d="m64.87,43.78c5.85,7.82,11.62,15.48,17.32,23.18,2.53,3.42,3.55,7.47,3.5,11.59-.12,10.02-7.16,18.84-17.36,20.64-11.33,2-21.71-4.98-24.24-15.57-1.73-7.24-.02-13.89,4.98-19.63,2.47-2.84,4.62-5.96,6.92-8.95,2.76-3.59,5.51-7.18,8.28-10.76.13-.16.32-.27.6-.5Z" fill="#f47920"/>
</svg>